# xmcd CD database file
#
# Track frame offsets:
#	150
#	20265
#	40305
#	61515
#	79400
#	99522
#	113872
#	129467
#	150517
#	170700
#	188092
#	205515
#	228100
#	239367
#	263090
#	280000
#	315430
#
# Disc length: 4473 seconds
#
# Revision: 3
# Processed by: cddbd v1.5.2PL0 Copyright (c) Steve Scherf et al.
# Submitted via: CDex 1.70beta2
#
DISCID=d1117711
DTITLE=Angie Stone - Stone Hits - The Very Best Of
DYEAR=2005
DGENRE=R&B
TTITLE0=Wish I Didn't Miss You
TTITLE1=Brotha
TTITLE2=No More Rain (In This Cloud)
TTITLE3=Stay For A While (ft Anthony Hamilton)
TTITLE4=I Wasn't Kidding
TTITLE5=I Wanna Thank Ya (ft Snoop Dogg)
TTITLE6=Everyday
TTITLE7=Pissed Off
TTITLE8=More Than A Woman (Duet With Joe)
TTITLE9=U-Haul
TTITLE10=Bottles and Cans
TTITLE11=Little Boy
TTITLE12=Makings Of You (Interlude)
TTITLE13=Bone 2 Pic (Wit U)
TTITLE14=Brotha Part II (ft Alicia Keys and Eve)
TTITLE15=Wish I Didn't Miss You (Pound Boys Stoneface Bootleg Mix)
TTITLE16=Life Story (Booker T Mix)
EXTD=YEAR: 2005
EXTT0=
EXTT1=
EXTT2=
EXTT3=
EXTT4=
EXTT5=
EXTT6=
EXTT7=
EXTT8=
EXTT9=
EXTT10=
EXTT11=
EXTT12=
EXTT13=
EXTT14=
EXTT15=
EXTT16=
PLAYORDER=
